<svg xmlns="http://www.w3.org/2000/svg" width="24" height="24" viewBox="0 0 22 22"><title>pslogomodern</title><path fill="currentColor" d="M10.69 20.06v-.95H8.9v-1.02h1.79v-3l.24-.22.24-.22.02.01.01.01.24.21.24.21v3h1.79v1.02h-1.79v1.9h-.99zm5.8-3.1-.23-.03-.18-.03-.18-.04-.22-.05-.23-.06-.28-.11-.28-.1-.21-.09-.21-.09-.38-.19-.37-.18-.31-.18-.32-.18-.24-.16-.25-.15-.23-.16-.22-.16-.14-.11-.14-.12-.69-.68-.68-.68-.31-.27-.3-.27-.31-.26-.31-.26-.32-.23-.32-.24-.25-.15-.24-.16-.26-.13-.26-.13-.17-.05-.16-.06v-.73l-.01-.73.07.01.06.01.2.06.19.06.19.08.19.08.17.09.18.09.27.15.27.15.37.25.37.24.31.23.3.23.31.25.3.25.06.05.06.05.05-.06.04-.06.12-.14.12-.14.16-.16.15-.16.26-.24.26-.24.24-.19.24-.19.21-.15.21-.15.22-.13.21-.13.27-.13.28-.14.19-.07.19-.07.19-.05.19-.05.07-.01.06-.01v1.48l-.08.02-.09.02-.21.07-.21.07-.29.14-.28.14-.28.19-.28.18-.2.16-.2.16-.3.29-.3.29-.16.19-.16.19v.02l.34.27.34.27.24.17.24.16.32.19.32.2.39.18.38.19.28.11.29.11.19.06.19.07.19.04.19.05.19.04.19.03h.83l.18-.03.18-.04.2-.07.2-.07.19-.1.2-.09.22-.15.21-.14.01.01.02.01-.07.11-.07.12-.14.17-.15.17-.16.14-.16.13-.14.09-.14.09-.19.09-.18.1-.21.07-.2.06.12-.01.12-.01.19-.03.19-.03.17-.05.17-.05.21-.08.2-.08.18-.11.19-.11.14-.11.15-.12.14-.15.14-.14.12-.18.12-.18.08-.18.09-.19.05-.16.06-.16.02-.14.02-.14-.01-.19-.01-.19-.03-.12-.04-.12-.08-.19-.09-.18-.1-.14-.09-.13-.2-.2-.19-.19-.15-.13-.15-.12-.24-.15-.24-.16-.31-.16-.31-.15V9.44h.06l.23.06.23.06.26.09.26.09.36.18.36.18.16.09.15.1.23.17.23.17.22.22.23.22.13.18.13.18.13.21.12.21.08.21.08.2.05.19.05.19.03.21.03.21v.63l-.03.2-.03.2-.06.22-.06.22-.07.18-.07.17-.09.17-.09.17-.12.16-.11.15-.13.15-.13.14-.19.16-.18.15-.17.11-.16.11-.17.08-.17.09-.22.09-.23.1-.24.06-.24.07-.22.05-.22.04-.27.03-.27.03-.36-.01h-.37zm-11.67-.05h-.13l-.28-.03-.28-.03-.29-.06-.3-.05-.18-.06-.18-.05-.24-.13-.24-.12-.18-.12-.17-.12-.18-.15-.17-.15-.19-.21-.18-.21-.15-.2-.15-.21-.1-.22-.11-.22-.05-.17-.06-.17-.04-.19-.04-.19-.01-.41-.01-.41.04-.29.04-.29.06-.23.06-.24.08-.14.07-.15.11-.17.12-.16.18-.19.18-.19.14-.12.14-.11.21-.14.2-.13.23-.12.23-.12.28-.11.29-.11.27-.08.28-.08.25-.05.26-.05.01.01-.02.72-.01.71-.01.01h-.01l-.1.03-.1.02-.19.07-.19.07-.22.11-.21.11-.18.13-.18.12-.16.16-.16.16-.1.15-.09.14-.07.15-.07.14-.05.17-.04.17v.68l.07.2.08.2.05.09.05.1.12.18.12.19.18.17.17.17.18.13.19.13.24.11.24.12.23.07.23.08.23.04.23.03h.29l-.23-.07-.24-.08-.18-.09-.18-.09-.12-.08-.12-.09-.14-.12-.14-.13-.13-.14-.13-.14-.13-.19-.13-.2.01-.01.01-.01.3.22.29.22.21.1.2.1.13.04.13.04.17.04.18.03h.68l.2-.03.2-.04.27-.06.26-.06.48-.18.49-.18.36-.18.36-.17.25-.17.25-.16.13-.09.12-.09.22-.19.23-.19.07.05.06.05.35.31.36.31.12.11.13.1-.01.02v.02l-.38.32-.39.32-.31.23-.31.24-.16.11-.16.11-.25.15-.24.15-.23.12-.23.11-.12.05-.12.04-.27.12-.26.12-.22.08-.22.08-.29.07-.29.08-.21.03-.21.03-.29.02-.28.02-.16-.01h-.16zm.27-6.03V8.49l.01-1.95.02-1.94.87.42.87.43v2.63h.03l.96-.2.95-.21.04-.01.03-.01V5.62L6.34 4.35 3.81 3.09l-.07-.04-.06-.04-.04-.06-.04-.07v-.83l-.01-.84h.05l2.93 1.46 2.92 1.47.51.26.52.26.04.04.05.04.03.1.03.1.02 1.76.01 1.75-.02.09-.03.1-.03.04-.04.04-.09.05-.09.04-1.7.01-1.69.01-.04.02-.05.03-.02.04-.03.05-.02 1.79-.01 1.79-.02.01-.01.02-.82.33-.81.34-.05.01-.04.02zm11.2 2.03-.83-.32.01-.85.02-.85.02-1.03.01-1.02-.02-.07-.02-.07-.04-.03-.04-.04-1.78.01h-1.78l-.06-.06-.06-.05-.02-.11-.02-.1V4.74l.95-.48.95-.48 2.57-1.29 2.56-1.28h.04v1.77l-.06.05-.05.05-2.58 1.25-2.58 1.26-.01.99v.99l.08.03.07.02.49.1.5.1 1.15.22 1.15.22.13.02.14.03v.01l.01.01-.01 2.1-.02 2.1v.69h-.03zm-5.12-2.28v-.72l.04-.05.04-.04.31-.01.31-.01.32-.01.33-.01.01.07.01.06.01.13.02.13-.3.24-.3.24-.23.2-.24.2-.16.15-.17.14z" class="nc-icon-wrapper"/></svg>